<svg xmlns="http://www.w3.org/2000/svg" viewBox="0 0 864 182.5308">
  <title>limonetik-logo-reverse-rgb</title>
  <g id="white-rgb">
    <g>
      <path id="fullLogo" d="M300.9275,40.0294a8.1291,8.1291,0,0,0-5.7488,13.8631,8.1291,8.1291,0,0,0,11.4962-11.4962A7.8676,7.8676,0,0,0,300.9275,40.0294Z" style="fill: #fff"/>
      <path id="fullLogo-2" data-name="fullLogo" d="M295.063,72.1851v69.9088h4.7664a6.97,6.97,0,0,0,6.9627-6.9612v-69.91h-4.7665A6.9709,6.9709,0,0,0,295.063,72.1851Z" style="fill: #fff"/>
      <path id="fullLogo-3" data-name="fullLogo" d="M406.0415,63.4209c-10.5419,0-18.6888,4.28-24.24,12.7293-4.6492-8.45-12.342-12.7293-22.89-12.7293-9.2064,0-16.6113,3.6179-22.0544,10.7631V72.1851a6.9709,6.9709,0,0,0-6.9627-6.9627h-4.7664v76.8715h4.7664a6.97,6.97,0,0,0,6.9627-6.9612V99.6055c0-8.414,2.0315-14.7119,6.0367-18.7185A20.0568,20.0568,0,0,1,357.56,74.85c5.1077,0,9.1975,1.6665,12.155,4.9519,2.9827,3.3137,4.4963,8.2092,4.4963,14.55v40.78a6.9684,6.9684,0,0,0,6.9613,6.9612h4.7664V99.6055c0-8.5268,1.8638-14.8573,5.5366-18.8165,3.655-3.94,8.5045-5.9387,14.4166-5.9387,5.2131,0,9.46,1.6976,12.621,5.0439,3.1712,3.3612,4.78,8.2256,4.78,14.4581v40.78a6.97,6.97,0,0,0,6.9626,6.9612h4.7665V94.3523c0-9.4037-2.6845-16.9882-7.9807-22.5441C421.73,66.2419,414.6648,63.4209,406.0415,63.4209Z" style="fill: #fff"/>
      <path id="fullLogo-4" data-name="fullLogo" d="M488.2939,63.4209A39.41,39.41,0,0,0,459.66,75.0165a38.8265,38.8265,0,0,0-11.7529,28.6417A38.8171,38.8171,0,0,0,459.66,132.3a41.1526,41.1526,0,0,0,57.2685,0,38.8125,38.8125,0,0,0,11.7529-28.6417,38.8217,38.8217,0,0,0-11.7529-28.6417A39.4046,39.4046,0,0,0,488.2939,63.4209Zm28.658,40.2373a28.0567,28.0567,0,0,1-8.2908,20.4473,28.9831,28.9831,0,0,1-40.733,0,28.0525,28.0525,0,0,1-8.2923-20.4473,28.0564,28.0564,0,0,1,8.2923-20.4459,28.9833,28.9833,0,0,1,40.733,0A28.0582,28.0582,0,0,1,516.9519,103.6582Z" style="fill: #fff"/>
      <path id="fullLogo-5" data-name="fullLogo" d="M577.6024,63.4209c-10.42,0-18.5835,3.8568-24.3056,11.4739v-2.71a6.97,6.97,0,0,0-6.9612-6.9627h-4.7665v76.8715h4.7665a6.9684,6.9684,0,0,0,6.9612-6.9612v-33.276c0-9.2109,2.1843-16.0905,6.4922-20.4474,4.305-4.3524,9.9944-6.559,16.9126-6.559,6.2133,0,11.0673,1.7748,14.4269,5.2725,3.3671,3.5139,5.0752,8.5534,5.0752,14.98v40.03a6.97,6.97,0,0,0,6.9626,6.9612h4.7665V95.1032c0-9.6026-2.7349-17.3637-8.1291-23.0665C594.3962,66.3191,586.926,63.4209,577.6024,63.4209Z" style="fill: #fff"/>
      <path id="fullLogo-6" data-name="fullLogo" d="M660.9068,63.4209c-11.71,0-21.4238,3.88-28.8717,11.5333-7.442,7.6453-11.2142,17.3013-11.2142,28.704,0,11.6074,3.8256,21.3184,11.373,28.8628,7.5458,7.5488,17.4586,11.3745,29.4638,11.3745a41.2656,41.2656,0,0,0,19.9472-4.7635,36.6907,36.6907,0,0,0,13.85-12.9267l.4942-.7954-4.7531-2.7854a7.112,7.112,0,0,0-8.739,1.4068,24.4892,24.4892,0,0,1-6.3142,5.0261,28.7508,28.7508,0,0,1-14.335,3.41c-7.7536,0-14.3512-2.1785-19.6118-6.4745a25.8969,25.8969,0,0,1-9.202-16.47H698.657l.0816-.8206c.2048-2.06.3042-3.61.3042-4.7427a42.0545,42.0545,0,0,0-10.5064-28.4428C681.5322,67.49,672.2353,63.4209,660.9068,63.4209Zm25.9706,34.674H632.9982a27.4091,27.4091,0,0,1,8.9244-16.4941c5.0588-4.4786,11.4457-6.7505,18.9842-6.7505a25.7269,25.7269,0,0,1,17.2657,6.3824C682.8544,85.2735,685.7793,90.9437,686.8774,98.0949Z" style="fill: #fff"/>
      <path id="fullLogo-7" data-name="fullLogo" d="M730.7132,43.8921l-6.7846,2.0553a6.9219,6.9219,0,0,0-4.943,6.6644V65.2224h-8.7984a6.9709,6.9709,0,0,0-6.9626,6.9627v4.4667h15.761v44.5689c0,9.012,2.8017,15.2357,8.3279,18.496,3.5912,2.12,8.3991,3.1949,14.2889,3.1949a66.8094,66.8094,0,0,0,9.9514-.828l.7746-.1173v-3.2409a6.9957,6.9957,0,0,0-7.0977-6.96h-.003q-3.2409.0667-5.8052.0252c-2.9278-.0445-5.13-.8533-6.5457-2.4055-1.435-1.567-2.1636-4.3138-2.1636-8.1647V76.6518h14.6525a6.9709,6.9709,0,0,0,6.9627-6.9627V65.2224H730.7132Z" style="fill: #fff"/>
      <path id="fullLogo-8" data-name="fullLogo" d="M274.4183,132.2346a107.9077,107.9077,0,0,1-17.3622-.1351c-3.7663-.35-5.323-1.2984-6.617-2.7141-1.4335-1.567-2.1621-4.3138-2.1621-8.1647V46.2071a6.9709,6.9709,0,0,0-6.9627-6.9627h-4.7664v81.9763c0,9.0773,2.8032,15.301,8.3338,18.5,5.1033,2.9486,13.7073,3.5689,20.0274,3.5689a112.5316,112.5316,0,0,0,16.1691-1.2064l.7746-.1173v-2.7854A6.9358,6.9358,0,0,0,274.4183,132.2346Z" style="fill: #fff"/>
      <path id="fullLogo-9" data-name="fullLogo" d="M771.1716,40.0294a8.1291,8.1291,0,0,0-5.7488,13.8631,8.129,8.129,0,0,0,11.4961-11.4962A7.8672,7.8672,0,0,0,771.1716,40.0294Z" style="fill: #fff"/>
      <path id="fullLogo-10" data-name="fullLogo" d="M765.307,72.1851v69.9088h4.7665a6.97,6.97,0,0,0,6.9627-6.9612v-69.91H772.27A6.9709,6.9709,0,0,0,765.307,72.1851Z" style="fill: #fff"/>
      <path id="fullLogo-11" data-name="fullLogo" d="M800.993,39.2444h-4.7664v95.8883a6.97,6.97,0,0,0,6.9627,6.9612h4.7664V46.2071A6.9709,6.9709,0,0,0,800.993,39.2444Z" style="fill: #fff"/>
      <path id="fullLogo-12" data-name="fullLogo" d="M827.2174,102.17l35.3373-36.9474h-12.023a9.4276,9.4276,0,0,0-6.7816,2.8967l-28.7649,30.08a5.7626,5.7626,0,0,0-.0623,7.8887l30.6064,33.0045a9.4137,9.4137,0,0,0,6.8811,3.002H864Z" style="fill: #fff"/>
      <g id="logoMark">
        <path id="logoMark_PathItem_" data-name="logoMark &lt;PathItem&gt;" d="M152.1951,133.4734a15.1831,15.1831,0,0,0-14.1552,9.74l-12.6534-3.4008,4.3846-16.2863a11.6323,11.6323,0,0,0,10.6577-16.8917l27.0656-27.0232a11.63,11.63,0,1,0-5.2025-5.1553l-27.0656,27.0229A11.672,11.672,0,0,0,124.14,122.0134c.0586.0339.122.0487.181.0814L119.945,138.35l-15.6249-4.2a10.3965,10.3965,0,0,0,.1153-1.1438A10.5714,10.5714,0,1,0,85.9,139.8881L75.3764,159.0188a11.8442,11.8442,0,0,0-3.7137-.1842l-9.216-34.3586a13.0787,13.0787,0,0,0,1.6681-.7512,13.2118,13.2118,0,0,0-13.2117-22.8835c-.1756.1014-.3137.24-.4829.3477L39.61,90.3525l11.451-11.4342a10.3864,10.3864,0,0,0,.933.6719,10.57,10.57,0,1,0,3.3239-19.4926L44.3862,41.982A12.5257,12.5257,0,0,0,45.6847,40.28l32.5364,8.7456c-.0018.0982-.029.19-.029.2884a15.211,15.211,0,0,0,30.4219,0c0-.38-.0845-.7372-.112-1.1106l12.842-3.4249,3.4887,13.06a13.0547,13.0547,0,0,0-1.6805.7569,13.26,13.26,0,1,0,4.78-1.6287L124.4552,43.949l17.5466-4.68a11.6135,11.6135,0,1,0-1.5053-5.6333c0,.0679.0189.1308.02.1984l-17.5153,4.671-4.6133-17.2709a10.3491,10.3491,0,0,0,1.0295-.4636,10.5369,10.5369,0,1,0-4.13,1.3329L119.89,39.3353l-12.8186,3.4186a15.1025,15.1025,0,0,0-26.908-.79L47.5818,33.2062a12.6921,12.6921,0,1,0-9.4645,12.5681L49.0418,63.8788a10.1873,10.1873,0,0,0-.2852,12.789L37.335,88.0726,23.6941,74.3987a10.519,10.519,0,1,0-3.9658,4.0025l13.62,13.6525-9.7688,9.7544a14.4253,14.4253,0,0,0-1.7774-1.28,14.6307,14.6307,0,1,0,4.0717,3.54l9.749-9.7348L46.4389,105.176a13.1492,13.1492,0,0,0,12.907,20.1748L68.561,159.706a11.9406,11.9406,0,1,0,13.229,2.85l10.5251-19.1344a10.179,10.179,0,0,0,11.209-6.1521l15.5841,4.1885L113.37,162.7712a7.9426,7.9426,0,1,0,5.4351,1.4856L124.55,142.92l12.6722,3.4058a15.1819,15.1819,0,1,0,14.9732-12.8528Z" style="fill: #fff"/>
        <circle id="logoMark_PathItem_2" data-name="logoMark &lt;PathItem&gt;" cx="35.0719" cy="148.6843" r="11.8655" style="fill: #fff"/>
        <path id="logoMark_PathItem_3" data-name="logoMark &lt;PathItem&gt;" d="M167.5984,104.223a10.2665,10.2665,0,1,0,14.0244,3.7578A10.2666,10.2666,0,0,0,167.5984,104.223Z" style="fill: #fff"/>
        <path id="logoMark_PathItem_4" data-name="logoMark &lt;PathItem&gt;" d="M70.2993,14.7935A7.9271,7.9271,0,1,0,67.3979,3.9648,7.9272,7.9272,0,0,0,70.2993,14.7935Z" style="fill: #fff"/>
      </g>
    </g>
  </g>
</svg>
