<?xml version="1.0" encoding="utf-8"?>
<!-- Generator: Adobe Illustrator 22.1.0, SVG Export Plug-In . SVG Version: 6.00 Build 0)  -->
<svg version="1.1" id="Layer_1" xmlns="http://www.w3.org/2000/svg" xmlns:xlink="http://www.w3.org/1999/xlink" x="0px" y="0px"
	 viewBox="0 0 100 62.5" style="enable-background:new 0 0 100 62.5;" xml:space="preserve">
<style type="text/css">
	.st0{fill:#F9F9F9;}
	.st1{fill:#231F20;}
	.st2{fill:#F79410;}
	.st3{fill:#FF5F00;}
	.st4{fill:#EB001B;}
	.st5{fill:#F79E1B;}
</style>
<g>
	<title></title>
	<g id="icomoon-ignore">
	</g>
	<path class="st0" d="M100,59.2c0,2-1.5,3.3-3.3,3.3H3.3c-2,0-3.3-1.5-3.3-3.3v-56C0,1.3,1.5,0,3.3,0h93.5c2,0,3.3,1.5,3.3,3.3
		L100,59.2L100,59.2z"/>
	<g transform="translate(1565.7 -1106.8)">
		<g transform="matrix(3.1437 0 0 3.1437 -4835.7 -1027.6)">
			<g transform="matrix(1.25 0 0 -1.25 1102.5 727.74)">
				<path class="st1" d="M-29.6,25.1L-29.6,25.1L-29.6,25.1C-29.6,25.1-29.6,25.1-29.6,25.1C-29.6,25.1-29.6,25.1-29.6,25.1
					C-29.6,25.1-29.6,25.1-29.6,25.1C-29.6,25.1-29.6,25.1-29.6,25.1L-29.6,25.1L-29.6,25.1z M-29.6,25.2
					C-29.6,25.2-29.5,25.2-29.6,25.2C-29.5,25.1-29.5,25.1-29.6,25.2C-29.5,25.1-29.5,25.1-29.6,25.2
					C-29.5,25.1-29.5,25.1-29.6,25.2l0.1-0.1h0L-29.6,25.2L-29.6,25.2l0-0.1h0L-29.6,25.2L-29.6,25.2z M-29.6,25
					C-29.6,25-29.6,25-29.6,25C-29.5,25-29.5,25-29.6,25C-29.5,25-29.5,25.1-29.6,25c0.1,0.1,0.1,0.1,0.1,0.1s0,0,0,0c0,0,0,0,0,0
					c0,0,0,0,0,0c0,0,0,0,0,0s0,0,0,0c0,0,0,0,0,0c0,0,0,0,0,0c0,0,0,0,0,0S-29.7,25.1-29.6,25C-29.7,25.1-29.7,25-29.6,25
					C-29.7,25-29.6,25-29.6,25C-29.6,25-29.6,25-29.6,25 M-29.6,25.2C-29.6,25.2-29.5,25.2-29.6,25.2
					C-29.5,25.2-29.5,25.2-29.6,25.2c0.1-0.1,0.1-0.1,0.1-0.1s0,0,0-0.1c0,0,0,0,0-0.1c0,0,0,0,0,0c0,0,0,0,0,0s0,0-0.1,0
					c0,0,0,0-0.1,0c0,0,0,0,0,0c0,0,0,0,0,0c0,0,0,0,0,0.1c0,0,0,0,0,0.1C-29.7,25.2-29.7,25.2-29.6,25.2
					C-29.7,25.2-29.7,25.2-29.6,25.2C-29.6,25.2-29.6,25.2-29.6,25.2 M-41.6,25.7c0,0.2,0.2,0.4,0.4,0.4c0.2,0,0.4-0.2,0.4-0.4
					s-0.2-0.4-0.4-0.4C-41.5,25.3-41.6,25.5-41.6,25.7 M-40.6,25.7v0.6h-0.3v-0.2c-0.1,0.1-0.2,0.2-0.4,0.2c-0.4,0-0.6-0.3-0.6-0.7
					c0-0.4,0.3-0.7,0.6-0.7c0.2,0,0.3,0.1,0.4,0.2V25h0.3V25.7z M-31.1,25.7c0,0.2,0.2,0.4,0.4,0.4s0.4-0.2,0.4-0.4
					s-0.2-0.4-0.4-0.4C-30.9,25.3-31.1,25.5-31.1,25.7 M-30.1,25.7v1.2h-0.3v-0.7c-0.1,0.1-0.2,0.2-0.4,0.2c-0.4,0-0.6-0.3-0.6-0.7
					c0-0.4,0.3-0.7,0.6-0.7c0.2,0,0.3,0.1,0.4,0.2v-0.2h0.3V25.7z M-37.1,26.1c0.2,0,0.3-0.1,0.3-0.3h-0.7
					C-37.4,26-37.3,26.1-37.1,26.1 M-37.1,26.4c-0.4,0-0.6-0.3-0.6-0.7c0-0.4,0.3-0.7,0.7-0.7c0.2,0,0.4,0,0.5,0.2l-0.1,0.2
					c-0.1-0.1-0.2-0.1-0.4-0.1c-0.2,0-0.3,0.1-0.4,0.3h1c0,0,0,0.1,0,0.1C-36.5,26.1-36.7,26.4-37.1,26.4 M-33.7,25.7
					c0,0.2,0.2,0.4,0.4,0.4s0.4-0.2,0.4-0.4s-0.2-0.4-0.4-0.4C-33.6,25.3-33.7,25.5-33.7,25.7 M-32.7,25.7v0.6h-0.3v-0.2
					c-0.1,0.1-0.2,0.2-0.4,0.2c-0.4,0-0.6-0.3-0.6-0.7c0-0.4,0.3-0.7,0.6-0.7c0.2,0,0.3,0.1,0.4,0.2V25h0.3V25.7z M-35.3,25.7
					c0-0.4,0.3-0.7,0.7-0.7c0.2,0,0.3,0,0.5,0.2l-0.1,0.2c-0.1-0.1-0.2-0.1-0.3-0.1c-0.2,0-0.4,0.2-0.4,0.4c0,0.2,0.2,0.4,0.4,0.4
					c0.1,0,0.2,0,0.3-0.1l0.1,0.2c-0.1,0.1-0.3,0.2-0.5,0.2C-35,26.4-35.3,26.1-35.3,25.7 M-31.7,26.4c-0.2,0-0.3-0.1-0.3-0.2v0.2
					h-0.3V25h0.3v0.7c0,0.2,0.1,0.3,0.3,0.3c0.1,0,0.1,0,0.2,0l0.1,0.3C-31.5,26.4-31.6,26.4-31.7,26.4 M-39.2,26.2
					c-0.1,0.1-0.3,0.1-0.5,0.1c-0.3,0-0.5-0.2-0.5-0.4c0-0.2,0.2-0.3,0.4-0.4l0.1,0c0.2,0,0.2-0.1,0.2-0.1c0-0.1-0.1-0.2-0.3-0.2
					c-0.2,0-0.3,0.1-0.4,0.1l-0.1-0.2c0.2-0.1,0.3-0.2,0.6-0.2c0.4,0,0.6,0.2,0.6,0.4c0,0.2-0.2,0.3-0.5,0.4l-0.1,0
					c-0.1,0-0.2,0-0.2,0.1s0.1,0.2,0.2,0.2c0.2,0,0.3-0.1,0.4-0.1L-39.2,26.2z M-35.6,26.4c-0.2,0-0.3-0.1-0.3-0.2v0.2h-0.3V25h0.3
					v0.7c0,0.2,0.1,0.3,0.3,0.3c0.1,0,0.1,0,0.2,0l0.1,0.3C-35.4,26.4-35.5,26.4-35.6,26.4 M-38,26.3h-0.5v0.4h-0.3v-0.4H-39v-0.3
					h0.3v-0.6c0-0.3,0.1-0.5,0.4-0.5c0.1,0,0.3,0,0.3,0.1l-0.1,0.2c-0.1,0-0.2-0.1-0.2-0.1c-0.1,0-0.2,0.1-0.2,0.2v0.6h0.5L-38,26.3
					L-38,26.3L-38,26.3z M-42.1,25v0.8c0,0.3-0.2,0.5-0.5,0.5c-0.2,0-0.3,0-0.5-0.2c-0.1,0.1-0.2,0.2-0.4,0.2c-0.1,0-0.3,0-0.4-0.2
					v0.2h-0.3V25h0.3v0.7c0,0.2,0.1,0.3,0.3,0.3c0.2,0,0.3-0.1,0.3-0.3V25h0.3v0.7c0,0.2,0.1,0.3,0.3,0.3c0.2,0,0.3-0.1,0.3-0.3V25
					L-42.1,25L-42.1,25z"/>
			</g>
			<g transform="matrix(1.25 0 0 -1.25 1103.2 710.77)">
				<path class="st2" d="M-30,15.8v0.2h0l-0.1-0.1l-0.1,0.1h-0.1v-0.2h0v0.1l0.1-0.1L-30,15.8l0,0.1L-30,15.8L-30,15.8z M-30.3,15.8
					v0.2h0.1v0h-0.2v0h0.1L-30.3,15.8L-30.3,15.8z"/>
			</g>
			<path class="st3" d="M1058.7,692.1h-5.3v-9.5h5.3V692.1z"/>
			<g transform="matrix(1.25 0 0 -1.25 1064.5 698.59)">
				<path class="st4" d="M-8.6,9c0,1.5,0.7,2.9,1.8,3.8c-0.8,0.7-1.9,1-3,1c-2.7,0-4.8-2.2-4.8-4.8s2.2-4.8,4.8-4.8
					c1.1,0,2.2,0.4,3,1C-7.9,6.1-8.6,7.5-8.6,9"/>
			</g>
			<g transform="matrix(1.25 0 0 -1.25 1103.8 698.59)">
				<path class="st5" d="M-30.3,9c0-2.7-2.2-4.8-4.8-4.8c-1.1,0-2.2,0.4-3,1c1.1,0.9,1.8,2.3,1.8,3.8s-0.7,2.9-1.8,3.8
					c0.8,0.7,1.9,1,3,1C-32.5,13.9-30.3,11.7-30.3,9"/>
			</g>
		</g>
	</g>
</g>
</svg>
