<?xml version="1.0" encoding="utf-8"?>
<!-- Generator: Adobe Illustrator 22.1.0, SVG Export Plug-In . SVG Version: 6.00 Build 0)  -->
<svg version="1.1" id="Layer_1" xmlns="http://www.w3.org/2000/svg" xmlns:xlink="http://www.w3.org/1999/xlink" x="0px" y="0px"
	 viewBox="0 0 100 62.5" style="enable-background:new 0 0 100 62.5;" xml:space="preserve">
<style type="text/css">
	.st0{fill:#F9F9F9;}
	.st1{fill:#00579F;}
	.st2{fill:#FAA61A;}
</style>
<title></title>
<g id="icomoon-ignore">
</g>
<path class="st0" d="M100,59.2c0,2-1.5,3.3-3.3,3.3H3.3c-2,0-3.3-1.5-3.3-3.3v-56C0,1.3,1.5,0,3.3,0h93.5c2,0,3.3,1.5,3.3,3.3
	L100,59.2L100,59.2z"/>
<path class="st1" d="M77.8,21.3L77.8,21.3h-4c-1.2,0-2.2,0.4-2.7,1.7l-7.7,18.4h5.4c0,0,0.9-2.5,1.1-3c0.6,0,5.9,0,6.6,0
	c0.1,0.7,0.6,3,0.6,3H82L77.8,21.3z M71.4,34.2c0.4-1.2,2.1-5.6,2.1-5.6c0,0,0.4-1.2,0.7-1.9l0.4,1.7c0,0,1,4.8,1.2,5.8
	C74.9,34.2,72.4,34.2,71.4,34.2z"/>
<path class="st1" d="M59.4,29.3c-1.8-0.9-2.9-1.5-2.9-2.5c0-0.9,0.9-1.7,3-1.7c1.7,0,2.9,0.4,3.9,0.8l0.5,0.2l0.7-4.3
	c-1-0.4-2.6-0.9-4.6-0.9c-5.1,0-8.7,2.7-8.7,6.6c0,2.9,2.6,4.5,4.5,5.4c2,1,2.7,1.6,2.7,2.5c0,1.3-1.6,2-3.1,2
	c-2.1,0-3.2-0.3-4.9-1.1L49.7,36L49,40.5c1.2,0.6,3.5,1,5.8,1.1c5.4,0,9-2.7,9-6.8C63.8,32.5,62.4,30.7,59.4,29.3z"/>
<polygon class="st1" points="43.8,21.3 40.6,41.3 45.7,41.3 49,21.3 "/>
<g>
	<path class="st1" d="M36.2,21.3L36.2,21.3l-5.1,13.7l-0.6-2.8c-0.9-3.2-3.9-6.7-7.2-8.4l4.6,17.5h5.5l8.1-20L36.2,21.3L36.2,21.3z"
		/>
</g>
<path class="st2" d="M28.8,23c-0.3-1.3-1.2-1.6-2.3-1.7h-8.3L18,21.7c6.5,1.7,10.8,5.7,12.6,10.5L28.8,23z"/>
</svg>
