<?xml version="1.0" encoding="utf-8"?>
<!-- Generator: Adobe Illustrator 22.1.0, SVG Export Plug-In . SVG Version: 6.00 Build 0)  -->
<svg version="1.1" id="Calque_1" xmlns="http://www.w3.org/2000/svg" xmlns:xlink="http://www.w3.org/1999/xlink" x="0px" y="0px"
	 viewBox="0 0 100 66" style="enable-background:new 0 0 100 66;" xml:space="preserve">
<style type="text/css">
	.st0{fill:#F9F9F9;}
	.st1{fill:#0084C4;}
</style>
<title></title>
<g id="icomoon-ignore">
</g>
<path class="st0" d="M100,60.7c0,2-1.5,3.3-3.3,3.3H3.3c-2,0-3.3-1.5-3.3-3.3v-56c0-2,1.5-3.3,3.3-3.3h93.5c2,0,3.3,1.5,3.3,3.3
	V60.7z"/>
<path class="st1" d="M36.8,32.4h13.4c-0.2-2.8-0.8-5.4-2.8-7.2c-2.5-2.1-6.7-2.8-10.6-2.8c-4.1,0-8.3,0.8-10.8,3.1
	c-2.1,2-2.6,5.1-2.6,7.9c0,2.9,1,6.4,3.3,8.3c2.5,2.1,6.5,2.6,10.3,2.6s7.9-0.7,10.1-2.6c2.5-2,3.3-5.4,3.3-8.3l0,0H37v-1H36.8z"/>
<path class="st1" d="M51.2,33.2v10.5H70c2.8-0.2,4.9-2.3,4.9-5.2s-2.3-5.2-4.9-5.4l0,0C70,33.2,51.2,33.2,51.2,33.2L51.2,33.2z"/>
<path class="st1" d="M74.6,27.7c0-2.8-2.1-4.9-4.9-4.9c-0.2,0-0.3,0-0.7,0h-18v9.7h19C72.7,32.2,74.6,30.1,74.6,27.7z"/>
</svg>
