<?xml version="1.0" encoding="utf-8"?>
<!-- Generator: Adobe Illustrator 22.1.0, SVG Export Plug-In . SVG Version: 6.00 Build 0)  -->
<svg version="1.1" id="Calque_1" xmlns="http://www.w3.org/2000/svg" xmlns:xlink="http://www.w3.org/1999/xlink" x="0px" y="0px"
	 viewBox="0 0 100 63.3" style="enable-background:new 0 0 100 63.3;" xml:space="preserve">
<style type="text/css">
	.st0{fill:#F9F9F9;}
	.st1{fill:#FFFFFF;}
	.st2{fill:#0073A5;}
</style>
<g>
	<title></title>
	<g id="icomoon-ignore">
	</g>
	<path class="st0" d="M100,59.3c0,1.8-1.4,3.2-3.2,3.2H3.2C1.4,62.5,0,61,0,59.3v-56C0,1.4,1.4,0,3.2,0h93.6c1.8,0,3.2,1.4,3.2,3.2
		V59.3z"/>
	<path class="st1" d="M30.9,29.8v-1l-0.5,1h-4.2l-0.5-1.1v1H18l-1-2.1h-1.6l-1,2.1h-4V23l2.9-6.8H19l0.8,1.9v-1.9h7.1l1.4,3.2
		l1.4-3.2h21.9c0,0,1.1,0,1.9,0.6v-0.6h5.5v0.6c0,0,1-0.6,2.4-0.6s9.7,0,9.7,0l1,1.9v-1.9h6.3l1.1,1.9v-1.9h6v13.2h-6.1l-1.4-2.3
		v2.3h-7.6l-1.3-2.1h-1.4l-1,2.4h-4.5c0,0-1.8,0-2.9-1c0,0.5,0,1,0,1h-9.2c0,0,0-2.6,0-3.1c0-0.5-0.3-0.5-0.3-0.5h-0.3v3.5
		C49.3,29.8,30.9,29.8,30.9,29.8L30.9,29.8z"/>
	<path class="st1" d="M26.4,32.7h12.1l1.8,1.9l1.8-1.9h9.2c0,0,1,0,1.8,0.5v-0.5c0,0,7.1,0,8.2,0s1.9,0.6,1.9,0.6v-0.6h10.5v0.5
		c0,0,0.8-0.5,1.8-0.5s6.9,0,6.9,0v0.5c0,0,1-0.5,1.8-0.5c1,0,5.5,0,5.5,0v12.4c0,0-0.6,0.8-2.1,0.8h-7.1v-0.3c0,0-0.6,0.3-1.8,0.3
		c-1.1,0-19,0-19,0s0-2.9,0-3.2s-0.2-0.3-0.5-0.3h-0.2v3.7h-6v-3.7c0,0-0.6,0.3-1.8,0.3c-1.1,0-2.1,0-2.1,0v3.2h-7.4l-1.8-2.1
		l-1.8,2.1H26.2V32.7L26.4,32.7z"/>
	<path class="st2" d="M64.3,34.6h7.4v1.9h-5.2v1.9h5v1.8h-5V42h5.2V44h-7.4L64.3,34.6z"/>
	<path class="st2" d="M86.3,38.3c2.9,0.2,3.1,1.6,3.1,3.1c0,1.8-1.4,2.7-2.9,2.7h-4.8V42h3.7c0.6,0,1.6,0,1.6-1
		c0-0.5-0.2-0.6-0.8-0.8c-0.3,0-1.4-0.2-1.6-0.2c-2.6-0.2-3.2-1.3-3.2-2.9c0-1.8,1.3-2.7,2.7-2.7h4.8v2.1h-3.5
		c-0.8,0-1.8-0.2-1.8,0.8c0,0.6,0.5,0.6,1,0.8C84.9,38.2,86,38.3,86.3,38.3L86.3,38.3z"/>
	<path class="st2" d="M77.6,38.3c2.9,0.2,3.1,1.6,3.1,3.1c0,1.8-1.4,2.7-2.9,2.7h-4.8V42h3.7c0.6,0,1.6,0,1.6-1
		c0-0.5-0.2-0.6-0.8-0.8c-0.3,0-1.4-0.2-1.6-0.2c-2.6-0.2-3.2-1.3-3.2-2.9c0-1.8,1.3-2.7,2.7-2.7h4.8v2.1h-3.5
		c-0.8,0-1.8-0.2-1.8,0.8c0,0.6,0.5,0.6,1,0.8C76.2,38.2,77.5,38.3,77.6,38.3L77.6,38.3z"/>
	<path class="st2" d="M50.2,34.6h-8.1l-2.6,2.9L37,34.6h-9V44h8.9l2.7-3.1l2.7,3.2h4.3v-3.2h3.1c1.3,0,3.4,0,3.4-3.2
		C53.1,35.1,51.4,34.6,50.2,34.6L50.2,34.6z M35.6,42h-5.3v-1.8h5.2v-1.8h-5.2v-1.8h5.5l2.3,2.6L35.6,42L35.6,42z M44.4,43.2l-3.2-4
		l3.2-3.7V43.2L44.4,43.2z M49.4,38.8h-2.9v-2.3h2.9c1,0,1.3,0.6,1.3,1.1C50.9,38.5,50.4,38.8,49.4,38.8L49.4,38.8z"/>
	<path class="st2" d="M61.4,39.8c1.3-0.6,1.6-1.4,1.6-2.6c0-2.1-1.6-2.4-2.7-2.4h-6v9.3h2.3v-3.2h3.1c0.8,0,1.1,0.8,1.1,1.6l0.2,1.8
		h2.3L63,42.2C63,40.6,62.5,39.9,61.4,39.8L61.4,39.8z M59.4,38.8h-2.9v-2.1h2.9c1,0,1.3,0.6,1.3,1.1S60.4,38.8,59.4,38.8L59.4,38.8
		z"/>
	<path class="st2" d="M55.1,18.5h2.3v9.3h-2.3V18.5z"/>
	<path class="st2" d="M36.4,18.5h7.4v1.9h-5.2v1.8h5V24h-5v1.8h5.2v2.1h-7.4V18.5z"/>
	<path class="st2" d="M52.3,23.5c1.3-0.6,1.6-1.4,1.6-2.6c0-2.1-1.6-2.4-2.7-2.4h-6v9.3h2.3v-3.2h3.1c0.8,0,1.1,0.8,1.1,1.6l0.2,1.8
		h2.3l-0.2-1.9C53.9,24.3,53.5,23.7,52.3,23.5L52.3,23.5z M50.4,22.5h-2.9v-2.1h2.9c1,0,1.3,0.6,1.3,1.1
		C51.7,22.2,51.2,22.5,50.4,22.5L50.4,22.5z"/>
	<path class="st2" d="M30.9,18.5L28,24.8l-2.9-6.3h-3.7v9l-4-9h-2.7l-4,9.3H13l0.8-2.1h4.7l1,2.1h4.7v-7.1l3.1,6.9h1.9l3.2-6.8v6.8
		h2.3v-9.3L30.9,18.5L30.9,18.5z M14.8,23.7l1.3-3.2l1.4,3.2H14.8L14.8,23.7z"/>
	<path class="st2" d="M81.2,18.5V25l-3.9-6.4h-3.4v8.9l-4-8.9h-3.1l-3.2,7.2c0,0-1.3,0-1.4,0c-0.6-0.2-1.4-0.5-1.4-2.1V23
		c0-2.1,1.3-2.4,2.7-2.4h1.4v-2.1H62c-1,0-3.2,0.8-3.4,4.7c0,2.6,1.1,4.8,3.7,4.8h3.1l0.8-2.3h4.7l1,2.1h4.5v-6.9l4.2,6.9h3.1v-9.3
		L81.2,18.5L81.2,18.5z M67.1,23.7l1.3-3.2l1.4,3.2H67.1z"/>
</g>
</svg>
